<?xml version="1.0" encoding="UTF-8"?>
<svg width="33px" height="35px" viewBox="0 0 33 35" version="1.1" xmlns="http://www.w3.org/2000/svg" xmlns:xlink="http://www.w3.org/1999/xlink">
    <!-- Generator: Sketch 40.1 (33804) - http://www.bohemiancoding.com/sketch -->
    <title>Page 1</title>
    <desc>Created with Sketch.</desc>
    <defs></defs>
    <g id="Page-1" stroke="none" stroke-width="1" fill="none" fill-rule="evenodd">
        <g id="Desktop-HD" transform="translate(-265.000000, -25.000000)" fill="#8CB055">
            <g id="Group" transform="translate(265.000000, 25.000000)">
                <path d="M32.7268667,0.358866667 L26.1646,0.358866667 L16.3772,10.1518667 L14.4265333,8.19933333 L19.0661333,3.55833333 L17.5200667,2.0104 C15.8139333,0.306133333 13.0377333,0.308 11.333,2.0104 L1.2796,12.0656667 C-0.426533333,13.7722667 -0.426533333,16.5484667 1.2796,18.2546 L10.5620667,27.5370667 L5.92106667,32.1762 L7.4704,33.7222667 C8.32346667,34.5753333 9.44253333,35 10.5639333,35 C11.683,35 12.8044,34.5753333 13.6574667,33.7222667 L23.7127333,23.667 C25.417,21.9622667 25.417,19.1860667 23.7127333,17.4799333 L22.9469333,16.7141333 L32.7268667,6.9286 L32.7268667,0.358866667 Z M12.8790667,3.55833333 C13.7302667,2.70526667 15.1195333,2.70526667 15.9726,3.55833333 L7.4648,12.0656667 C6.89966667,11.5005333 6.21086667,11.1398 5.48893333,10.9503333 L12.8790667,3.55833333 Z M12.1058,32.1743333 C11.2527333,33.0255333 9.8658,33.0255333 9.01273333,32.1743333 L12.1058,29.0808 C12.5197333,29.4928667 12.7442,30.0416667 12.7442,30.6268667 C12.7460667,31.2120667 12.5178667,31.7641333 12.1058,32.1743333 L12.1058,32.1743333 Z M22.1610667,22.1190667 L14.7709333,29.5092 C14.5758667,28.7690667 14.2058,28.0891333 13.6537333,27.5370667 L2.82566667,16.709 C1.9726,15.8554667 1.9726,14.4685333 2.82566667,13.6136 C3.67686667,12.7619333 5.06613333,12.7586667 5.9192,13.6136 L7.4648,15.1629333 L12.8790667,9.74866667 L14.8311333,11.6974667 L13.0391333,13.4913333 L13.0391333,18.7049333 L10.8518667,22.2413333 L14.3775333,20.0610667 L19.6018667,20.0540667 L21.3957333,18.2602 L22.1610667,19.0255333 C23.0146,19.8786 23.0146,21.2678667 22.1610667,22.1190667 L22.1610667,22.1190667 Z M30.5391333,6.0228 L18.6942,17.8663333 L16.5704,17.8700667 L27.8049333,5.28826667 L15.2268667,16.5190667 L15.2268667,14.3971333 L27.0704,2.54846667 L30.5391333,2.54846667 L30.5391333,6.0228 Z" id="Page-1"></path>
            </g>
        </g>
    </g>
</svg>