<?xml version="1.0" encoding="UTF-8"?>
<svg width="16px" height="16px" viewBox="0 0 16 16" version="1.1" xmlns="http://www.w3.org/2000/svg" xmlns:xlink="http://www.w3.org/1999/xlink">
    <!-- Generator: Sketch 40.1 (33804) - http://www.bohemiancoding.com/sketch -->
    <title>ui-16px-2_like</title>
    <desc>Created with Sketch.</desc>
    <defs></defs>
    <g id="Symbols" stroke="none" stroke-width="1" fill="none" fill-rule="evenodd">
        <g id="Post" transform="translate(-295.000000, -264.000000)" fill="#373D51">
            <g id="Group-2">
                <g id="ui-16px-2_like" transform="translate(295.000000, 264.000000)">
                    <g id="Group">
                        <path d="M13.3,6 L9,6 L9,2 C9,0.5 8.2,0 7,0 C6.7,0 6.4,0.2 6.4,0.5 C6.4,0.5 4.1,8 4,8 L4,16 L12.6,16 C13.9,16 15,15 15.2,13.7 L16,9.1 C16.1,8.3 15.9,7.5 15.4,7 C14.9,6.3 14.1,6 13.3,6 L13.3,6 Z" id="Shape"></path>
                        <rect id="Rectangle-path" x="0" y="8" width="2" height="8"></rect>
                    </g>
                </g>
            </g>
        </g>
    </g>
</svg>