<?xml version="1.0" encoding="UTF-8"?>
<svg width="112px" height="35px" viewBox="0 0 112 35" version="1.1" xmlns="http://www.w3.org/2000/svg" xmlns:xlink="http://www.w3.org/1999/xlink">
    <!-- Generator: Sketch 40.1 (33804) - http://www.bohemiancoding.com/sketch -->
    <title>Group</title>
    <desc>Created with Sketch.</desc>
    <defs></defs>
    <g id="Page-1" stroke="none" stroke-width="1" fill="none" fill-rule="evenodd">
        <g id="Desktop-HD" transform="translate(-265.000000, -25.000000)">
            <g id="Group" transform="translate(265.000000, 25.000000)">
                <path d="M32.7268667,0.358866667 L26.1646,0.358866667 L16.3772,10.1518667 L14.4265333,8.19933333 L19.0661333,3.55833333 L17.5200667,2.0104 C15.8139333,0.306133333 13.0377333,0.308 11.333,2.0104 L1.2796,12.0656667 C-0.426533333,13.7722667 -0.426533333,16.5484667 1.2796,18.2546 L10.5620667,27.5370667 L5.92106667,32.1762 L7.4704,33.7222667 C8.32346667,34.5753333 9.44253333,35 10.5639333,35 C11.683,35 12.8044,34.5753333 13.6574667,33.7222667 L23.7127333,23.667 C25.417,21.9622667 25.417,19.1860667 23.7127333,17.4799333 L22.9469333,16.7141333 L32.7268667,6.9286 L32.7268667,0.358866667 Z M12.8790667,3.55833333 C13.7302667,2.70526667 15.1195333,2.70526667 15.9726,3.55833333 L7.4648,12.0656667 C6.89966667,11.5005333 6.21086667,11.1398 5.48893333,10.9503333 L12.8790667,3.55833333 Z M12.1058,32.1743333 C11.2527333,33.0255333 9.8658,33.0255333 9.01273333,32.1743333 L12.1058,29.0808 C12.5197333,29.4928667 12.7442,30.0416667 12.7442,30.6268667 C12.7460667,31.2120667 12.5178667,31.7641333 12.1058,32.1743333 L12.1058,32.1743333 Z M22.1610667,22.1190667 L14.7709333,29.5092 C14.5758667,28.7690667 14.2058,28.0891333 13.6537333,27.5370667 L2.82566667,16.709 C1.9726,15.8554667 1.9726,14.4685333 2.82566667,13.6136 C3.67686667,12.7619333 5.06613333,12.7586667 5.9192,13.6136 L7.4648,15.1629333 L12.8790667,9.74866667 L14.8311333,11.6974667 L13.0391333,13.4913333 L13.0391333,18.7049333 L10.8518667,22.2413333 L14.3775333,20.0610667 L19.6018667,20.0540667 L21.3957333,18.2602 L22.1610667,19.0255333 C23.0146,19.8786 23.0146,21.2678667 22.1610667,22.1190667 L22.1610667,22.1190667 Z M30.5391333,6.0228 L18.6942,17.8663333 L16.5704,17.8700667 L27.8049333,5.28826667 L15.2268667,16.5190667 L15.2268667,14.3971333 L27.0704,2.54846667 L30.5391333,2.54846667 L30.5391333,6.0228 Z" id="Page-1" fill="#8CB055"></path>
                <path d="M56.4375,13.588 C56.1335,12.125 54.9175,10.244 51.8775,10.244 C49.3885,10.244 47.4315,12.144 47.4315,14.253 C47.4315,16.267 48.7995,17.521 50.7185,17.939 L52.6375,18.357 C53.9865,18.642 54.6515,19.478 54.6515,20.447 C54.6515,21.625 53.7395,22.594 51.8775,22.594 C49.8445,22.594 48.7805,21.207 48.6475,19.706 L46.8615,20.276 C47.1085,22.195 48.6475,24.285 51.8965,24.285 C54.7655,24.285 56.5515,22.385 56.5515,20.295 C56.5515,18.414 55.2975,17.008 53.0555,16.514 L51.0415,16.077 C49.9015,15.83 49.3125,15.089 49.3125,14.12 C49.3125,12.866 50.3955,11.878 51.9155,11.878 C53.7965,11.878 54.6135,13.208 54.7655,14.177 L56.4375,13.588 Z M60.6935,24 L60.6935,14.861 L58.9265,14.861 L58.9265,24 L60.6935,24 Z M58.5275,11.403 C58.5275,12.106 59.0975,12.676 59.8005,12.676 C60.5225,12.676 61.0925,12.106 61.0925,11.403 C61.0925,10.681 60.5225,10.111 59.8005,10.111 C59.0975,10.111 58.5275,10.681 58.5275,11.403 L58.5275,11.403 Z M65.5005,24 L65.5005,18.49 C65.5005,17.122 66.3555,16.172 67.6285,16.172 C68.9965,16.172 69.5665,17.084 69.5665,18.262 L69.5665,24 L71.3525,24 L71.3525,18.471 C71.3525,17.16 72.2075,16.172 73.4615,16.172 C74.8105,16.172 75.3995,17.065 75.3995,18.262 L75.3995,24 L77.1665,24 L77.1665,18.072 C77.1665,15.678 75.6085,14.595 74.0125,14.595 C72.8535,14.595 71.6755,15.013 70.9535,16.324 C70.4595,15.146 69.3575,14.595 68.2175,14.595 C67.1535,14.595 66.0135,15.07 65.4435,16.077 L65.4435,14.861 L63.7335,14.861 L63.7335,24 L65.5005,24 Z M81.7835,27.61 L81.7835,22.765 C82.2775,23.582 83.3415,24.247 84.7475,24.247 C87.4265,24.247 89.0035,22.138 89.0035,19.421 C89.0035,16.761 87.5405,14.652 84.8045,14.652 C83.3225,14.652 82.2395,15.374 81.7455,16.286 L81.7455,14.861 L80.0165,14.861 L80.0165,27.61 L81.7835,27.61 Z M87.1795,19.421 C87.1795,21.302 86.1345,22.651 84.4815,22.651 C82.8475,22.651 81.7645,21.302 81.7645,19.421 C81.7645,17.597 82.8475,16.229 84.4815,16.229 C86.1535,16.229 87.1795,17.597 87.1795,19.421 L87.1795,19.421 Z M93.0695,24 L93.0695,10.244 L91.2835,10.244 L91.2835,24 L93.0695,24 Z M97.2685,18.49 C97.3445,17.312 98.2565,16.153 99.7575,16.153 C101.3725,16.153 102.2275,17.179 102.2655,18.49 L97.2685,18.49 Z M102.5315,20.865 C102.1895,21.891 101.4485,22.708 99.9665,22.708 C98.4275,22.708 97.2495,21.568 97.2115,19.934 L104.0895,19.934 C104.1085,19.82 104.1275,19.592 104.1275,19.364 C104.1275,16.514 102.5505,14.576 99.7385,14.576 C97.4395,14.576 95.3685,16.533 95.3685,19.402 C95.3685,22.499 97.5155,24.285 99.9665,24.285 C102.0945,24.285 103.5575,23.012 104.0705,21.397 L102.5315,20.865 Z M111.4805,14.766 C111.3855,14.747 111.1385,14.709 110.8915,14.709 C109.9605,14.709 108.8205,15.051 108.1555,16.457 L108.1555,14.861 L106.4075,14.861 L106.4075,24 L108.1935,24 L108.1935,19.421 C108.1935,17.407 109.2005,16.609 110.7015,16.609 C110.9485,16.609 111.2145,16.628 111.4805,16.666 L111.4805,14.766 Z" id="Simpler" fill="#363945"></path>
            </g>
        </g>
    </g>
</svg>